<svg width="906" height="303" viewBox="0 0 906 303" fill="none" xmlns="http://www.w3.org/2000/svg">
<g opacity="0.24">
<mask id="mask0_3_7" style="mask-type:alpha" maskUnits="userSpaceOnUse" x="0" y="0" width="901" height="303">
<mask id="mask1_3_7" style="mask-type:alpha" maskUnits="userSpaceOnUse" x="0" y="0" width="906" height="303">
<path d="M906 0H0V303H906V0Z" fill="url(#paint0_linear_3_7)"/>
</mask>
<g mask="url(#mask1_3_7)">
<path d="M878.049 106.761H633.182C621.002 106.761 611.036 102.887 611.036 98.1517C611.036 93.4164 621.002 89.5402 633.182 89.5402H762.711C774.891 89.5402 784.857 85.4083 784.857 80.3552C784.857 75.302 774.891 71.1725 762.711 71.1725H732.677C720.498 71.1725 710.531 67.2985 710.531 62.5632C710.531 57.8279 720.498 53.954 732.677 53.954H876.771C888.951 53.954 898.917 49.8221 898.917 44.7713C898.917 39.7204 888.951 35.5885 876.771 35.5885H672.588C660.408 35.5885 650.442 31.7146 650.442 26.9793C650.442 22.244 660.408 18.3655 672.588 18.3655H846.018C858.198 18.3655 868.164 14.2336 868.164 9.18273C868.164 4.13188 858.198 0 846.018 0H-405.405C-417.585 0 -427.551 4.13188 -427.551 9.18273C-427.551 14.2336 -417.585 18.3655 -405.405 18.3655H-260.987C-248.807 18.3655 -238.841 22.2394 -238.841 26.9793C-238.841 31.7192 -248.807 35.5885 -260.987 35.5885H-302.881C-315.061 35.5885 -325.027 39.7204 -325.027 44.7713C-325.027 49.8221 -315.061 53.954 -302.881 53.954H-183.633C-171.453 53.954 -161.487 57.8279 -161.487 62.5632C-161.487 67.2985 -171.453 71.1725 -183.633 71.1725H-359.272C-371.452 71.1725 -381.419 75.3043 -381.419 80.3552C-381.419 85.406 -371.452 89.5402 -359.272 89.5402H-300.393C-288.213 89.5402 -278.251 93.4141 -278.251 98.1517C-278.251 102.889 -288.218 106.761 -300.393 106.761H-422.062C-434.242 106.761 -444.203 110.893 -444.203 115.944C-444.203 120.995 -434.237 125.126 -422.062 125.126H-212.465C-200.286 125.126 -190.319 129 -190.319 133.736C-190.319 138.137 -198.927 141.79 -209.914 142.285H-374.314C-386.494 142.285 -396.46 146.417 -396.46 151.468C-396.46 156.519 -386.494 160.653 -374.314 160.653H-361.756C-360.942 160.692 -360.114 160.715 -359.272 160.715H-274.454C-263.466 161.21 -254.859 164.863 -254.859 169.264C-254.859 174 -264.825 177.874 -277.005 177.874H-451.214C-463.393 177.874 -473.36 182.005 -473.36 187.056C-473.36 192.107 -463.393 196.239 -451.214 196.239H-206.337C-194.157 196.239 -184.196 200.113 -184.196 204.848C-184.196 209.584 -194.162 213.46 -206.337 213.46H-335.866C-348.046 213.46 -358.013 217.592 -358.013 222.645C-358.013 227.698 -348.046 231.828 -335.866 231.828H-305.833C-293.653 231.828 -283.687 235.701 -283.687 240.437C-283.687 245.172 -293.653 249.046 -305.833 249.046H-449.927C-462.107 249.046 -472.073 253.178 -472.073 258.229C-472.073 263.28 -462.107 267.411 -449.927 267.411H-245.743C-233.563 267.411 -223.597 271.285 -223.597 276.021C-223.597 280.756 -233.563 284.635 -245.743 284.635H-419.173C-431.353 284.635 -441.319 288.766 -441.319 293.817C-441.319 298.868 -431.353 303 -419.173 303H832.25C844.43 303 854.396 298.868 854.396 293.817C854.396 288.766 844.43 284.635 832.25 284.635H687.832C675.652 284.635 665.686 280.761 665.686 276.021C665.686 271.281 675.652 267.411 687.832 267.411H729.726C741.906 267.411 751.872 263.28 751.872 258.229C751.872 253.178 741.906 249.046 729.726 249.046H610.478C598.298 249.046 588.332 245.172 588.332 240.437C588.332 235.701 598.298 231.828 610.478 231.828H786.117C798.297 231.828 808.263 227.696 808.263 222.645C808.263 217.594 798.297 213.46 786.117 213.46H727.242C715.062 213.46 705.096 209.586 705.096 204.848C705.096 200.111 715.062 196.239 727.242 196.239H848.906C861.086 196.239 871.052 192.107 871.052 187.056C871.052 182.005 861.086 177.874 848.906 177.874H639.31C627.13 177.874 617.164 174 617.164 169.264C617.164 164.863 625.771 161.21 636.759 160.715H801.159C813.339 160.715 823.3 156.583 823.3 151.532C823.3 146.481 813.334 142.347 801.159 142.347H788.601C787.782 142.308 786.958 142.285 786.117 142.285H701.299C690.311 141.79 681.704 138.137 681.704 133.736C681.704 129 691.67 125.126 703.85 125.126H878.058C890.238 125.126 900.204 120.995 900.204 115.944C900.204 110.893 890.238 106.761 878.058 106.761H878.049Z" fill="#271F45"/>
</g>
</mask>
<g mask="url(#mask0_3_7)">
<path d="M-21 302.637L885 302.637L885 -48.3503L-21 -48.3503L-21 302.637Z" fill="#FB03FB"/>
</g>
</g>
<defs>
<linearGradient id="paint0_linear_3_7" x1="770.562" y1="48.78" x2="244.988" y2="428.772" gradientUnits="userSpaceOnUse">
<stop stop-color="#4B1046"/>
<stop offset="1" stop-color="#632964"/>
</linearGradient>
</defs>
</svg>
