<svg width="379" height="248" viewBox="0 0 379 248" fill="none" xmlns="http://www.w3.org/2000/svg">
<path d="M21.6576 93.8102H89.9489L89.9489 0.913811H21.6576L21.6576 93.8102Z" fill="#F5F5F5"/>
<path d="M21.6577 0.914276H20.3034V93.8107H21.6577V0.914276Z" fill="#E0E0E0"/>
<path d="M28.5851 89.7221H83.0233L83.0233 5.00121H28.5851L28.5851 89.7221Z" fill="#FAFAFA"/>
<path d="M102.91 111.993H171.202V19.0967H102.91L102.91 111.993Z" fill="#F5F5F5"/>
<path d="M102.911 19.097H101.556V111.993H102.911V19.097Z" fill="#E0E0E0"/>
<path d="M109.838 107.906H164.276V23.1848H109.838L109.838 107.906Z" fill="#FAFAFA"/>
<path d="M58.8654 197.527C60.5597 172.259 56.0805 131.602 51.224 117.541C50.5795 115.676 49.8474 113.514 48.7464 113.228C45.5721 112.403 44.148 116.49 44.541 117.895C46.4449 124.691 48.1438 141.539 49.8474 170.849C50.695 185.438 49.8287 195.433 52.12 197.537L58.8654 197.527Z" fill="#E6E6E6"/>
<path d="M53.8235 141.168C58.271 129.33 115.272 117.171 98.8552 129.906C94.7625 133.081 75.7316 141.438 67.9113 150.229C61.8365 157.057 55.7031 168.54 54.0833 174.909C53.3754 161.512 50.8578 149.063 53.8235 141.168Z" fill="#E6E6E6"/>
<path d="M60.3131 156.183C70.2421 138.165 101.999 134.935 93.4635 144.444C90.1123 148.177 77.8137 152.431 69.9934 161.222C63.9187 168.051 57.7852 179.533 56.1655 185.902C55.4576 172.505 56.1664 163.708 60.3131 156.183Z" fill="#E6E6E6"/>
<path d="M47.8277 154.651C36.0759 131.473 -6.39255 129.63 4.90846 140.398C9.20513 144.492 24.2048 151.999 35.545 161.667C44.3544 169.177 54.2862 181.625 57.6636 188.452C55.4803 174.274 52.5687 164.001 47.8277 154.651Z" fill="#E6E6E6"/>
<path d="M52.7683 128.721C63.2906 112.846 95.1482 111.147 86.0529 119.833C82.4818 123.243 70.8743 127.58 63.2906 136.106C57.3984 142.729 50.3159 151.366 48.7464 157.545C48.059 144.551 48.1056 135.756 52.7683 128.721Z" fill="#E6E6E6"/>
<path d="M43.606 129.03C35.3005 119.165 -1.90914 108.308 7.78702 117.25C17.9517 126.622 25.1656 125.008 34.7677 133.194C42.2275 139.554 50.6373 150.094 53.4968 155.876C51.6498 143.87 49.5438 136.083 43.606 129.03Z" fill="#E6E6E6"/>
<path d="M53.4683 117.668C58.7355 109.869 80.5058 104.127 74.8008 110.114C70.8441 114.266 66.092 117.117 61.0595 122.774C57.1503 127.168 51.8411 132.693 50.7998 136.793C50.3434 128.171 50.3294 122.316 53.4683 117.668Z" fill="#E6E6E6"/>
<path d="M44.8903 120.027C39.5784 115.188 11.1894 103.691 17.6694 111.073C20.2131 113.972 31.0465 121.046 38.3443 127.267C44.0139 132.1 50.2349 136.034 52.407 140.427C51.0033 131.304 50.2023 124.864 44.8903 120.027Z" fill="#E6E6E6"/>
<path d="M52.1656 137.027C44.4049 129.958 -12.1588 120.859 2.37705 128.654C7.35646 131.325 29.2245 135.909 39.8866 144.998C48.1697 152.06 51.1466 163.763 54.3209 170.183C62.687 158.909 59.9262 144.096 52.1656 137.027Z" fill="#E6E6E6"/>
<path d="M42.4738 196.502L43.2003 217.646C43.2795 221.656 44.4149 221.536 45.7897 221.536H64.0708C65.4456 221.536 66.581 221.656 66.6601 217.646L67.3857 196.502C67.4714 192.15 66.2876 188.484 64.7964 188.484H45.0631C43.5719 188.484 42.3881 192.15 42.4738 196.502Z" fill="#F5F5F5"/>
<path d="M41.3807 192.333H68.4787C68.8764 192.333 69.2108 192.125 69.2546 191.851L69.8982 187.803C69.9494 187.482 69.5871 187.203 69.1223 187.203H40.7371C40.2723 187.203 39.91 187.483 39.9612 187.803L40.6048 191.851C40.6486 192.125 40.983 192.333 41.3807 192.333Z" fill="#F5F5F5"/>
<path d="M232.74 102.884H212.23V216.42H232.74V102.884Z" fill="#F0F0F0"/>
<path d="M371.643 216.42H216.166V221.538H371.643V216.42Z" fill="#F0F0F0"/>
<path d="M232.74 216.419L375.583 216.419V102.884L232.74 102.884L232.74 216.419Z" fill="#F5F5F5"/>
<path d="M230.612 98.4182H209.649V102.884H230.612V98.4182Z" fill="#F0F0F0"/>
<path d="M230.612 102.884L378.164 102.884V98.4177L230.612 98.4177V102.884Z" fill="#FAFAFA"/>
<path d="M368.105 156.49H240.216V112.342H368.105V156.49ZM241.389 155.524H366.932V113.308H241.389V155.524Z" fill="#E0E0E0"/>
<path d="M368.105 206.96H240.216V163.431H368.105V206.96ZM241.389 205.994H366.932V164.396H241.389V205.994Z" fill="#E0E0E0"/>
<path d="M329.06 121.025H279.26C278.045 121.025 277.052 120.208 277.052 119.209C277.052 118.21 278.046 117.393 279.26 117.393H329.06C330.275 117.393 331.268 118.211 331.268 119.209C331.269 120.208 330.275 121.025 329.06 121.025Z" fill="#E0E0E0"/>
<path d="M329.06 172.114H279.26C278.045 172.114 277.052 171.296 277.052 170.298C277.052 169.298 278.046 168.481 279.26 168.481H329.06C330.275 168.481 331.268 169.299 331.268 170.298C331.269 171.297 330.275 172.114 329.06 172.114Z" fill="#E0E0E0"/>
<path d="M297.513 98.3728H356.752L361.56 54.9189H302.321L297.513 98.3728Z" fill="#E6E6E6"/>
<path d="M295.499 98.3728H354.739L359.546 54.9189H300.306L295.499 98.3728Z" fill="#F0F0F0"/>
<path d="M349.424 93.562L353.167 59.7288H305.621L301.879 93.562H349.424Z" fill="white"/>
<path d="M283.795 66.6415L280.285 98.3727H308.676L312.186 66.6415H283.795Z" fill="#E6E6E6"/>
<path d="M282.323 66.6415L278.813 98.3727H307.204L310.715 66.6415H282.323Z" fill="#F0F0F0"/>
<path d="M286.205 70.1541L283.471 94.8601H303.323L306.056 70.1541H286.205Z" fill="white"/>
<path d="M237.82 15.6503C234.219 8.14756 223.742 4.56056 214.686 7.85254C206.758 10.7338 202.449 19.107 205.44 25.799C207.018 29.327 210.099 32.0205 213.856 33.5891C215.461 34.2596 216.869 35.2091 217.822 36.4658L220.276 39.7018C221.937 41.8903 225.26 42.7923 228.178 41.8444L234.38 39.8298C237.297 38.8827 238.976 36.3562 238.371 33.8244L237.443 29.9424C237.116 28.5707 237.344 27.1676 237.937 25.858C239.38 22.6741 239.455 19.0595 237.82 15.6503Z" fill="#407BFF"/>
<path d="M228.966 48.2942C228.574 48.2942 228.181 48.2276 227.81 48.095C227.097 47.8406 226.551 47.3762 226.267 46.7862C225.682 45.5639 226.413 44.1777 227.898 43.695L236.121 41.0244C236.838 40.7915 237.625 40.8038 238.336 41.0566C239.048 41.311 239.596 41.7754 239.878 42.3654C240.162 42.9555 240.148 43.6022 239.839 44.1877C239.53 44.7739 238.966 45.2237 238.248 45.4567L230.025 48.1272C229.683 48.2391 229.324 48.2942 228.966 48.2942ZM237.18 41.6245C236.937 41.6245 236.696 41.662 236.463 41.7363L228.24 44.4068C227.232 44.7348 226.736 45.6751 227.134 46.5042C227.326 46.9034 227.697 47.2191 228.181 47.3908C228.663 47.564 229.197 47.5709 229.683 47.4138L237.907 44.7433C238.393 44.5854 238.776 44.2796 238.984 43.8819C239.195 43.485 239.204 43.0452 239.012 42.6459C238.82 42.2467 238.449 41.931 237.965 41.7593C237.713 41.6697 237.446 41.6245 237.18 41.6245Z" fill="#263238"/>
<path d="M233.155 52.4154C232.911 52.4154 232.667 52.374 232.435 52.292C231.992 52.1334 231.651 51.8437 231.475 51.4766L231.331 51.1786C230.966 50.4176 231.423 49.5533 232.348 49.2521L237.485 47.5831C238.411 47.285 239.461 47.6575 239.826 48.4184L239.969 48.718C240.146 49.0851 240.137 49.4881 239.945 49.8521C239.753 50.2169 239.401 50.4973 238.954 50.6422L233.817 52.3111C233.602 52.3809 233.38 52.4154 233.155 52.4154ZM238.147 48.246C238.041 48.246 237.932 48.2621 237.827 48.2958L232.689 49.9648C232.242 50.1111 232.021 50.528 232.198 50.8966L232.341 51.1947C232.427 51.3732 232.591 51.5127 232.806 51.5893C233.021 51.6667 233.258 51.669 233.474 51.6L238.611 49.931C238.828 49.8605 238.997 49.7257 239.091 49.5479C239.184 49.3717 239.188 49.177 239.103 48.9992L238.961 48.6996C238.824 48.4184 238.495 48.246 238.147 48.246Z" fill="#263238"/>
<path d="M217.874 29.2435C216.481 29.2435 215.161 28.5539 214.62 27.4244C213.912 25.95 214.795 24.278 216.586 23.6964C218.38 23.1148 220.411 23.8412 221.118 25.314L222.401 27.9868L219.153 29.042C218.733 29.1784 218.299 29.2435 217.874 29.2435ZM217.866 24.2611C217.553 24.2611 217.236 24.3094 216.928 24.4083C215.614 24.8351 214.968 26.0619 215.486 27.1424C216.005 28.2228 217.496 28.7554 218.81 28.3294L221.193 27.5554L220.252 25.5945C219.855 24.7676 218.888 24.2611 217.866 24.2611Z" fill="white"/>
<path d="M228.174 42.1041L221.192 27.5561L227.61 25.471L234.591 40.0198L233.725 40.301L227.087 26.4649L222.4 27.9868L229.039 41.8229L228.174 42.1041Z" fill="white"/>
<path d="M227.09 26.4649L225.806 23.7921C225.098 22.3178 225.981 20.645 227.773 20.0633C229.563 19.4787 231.597 20.2066 232.305 21.681C233.013 23.1553 232.13 24.8281 230.339 25.4097L227.09 26.4649ZM229.052 20.6281C228.74 20.6281 228.422 20.6764 228.114 20.7752C226.8 21.2028 226.154 22.4289 226.672 23.5101L227.613 25.471L229.997 24.6971C231.311 24.2695 231.957 23.0434 231.44 21.9622C231.042 21.1346 230.074 20.6281 229.052 20.6281Z" fill="white"/>
<path d="M241.558 62.987C238.035 62.987 234.522 62.7517 231.117 62.2889L231.27 61.5334C234.624 61.9901 238.085 62.2215 241.558 62.2215V62.987Z" fill="#407BFF"/>
<path d="M260.826 70.9212L261.319 70.0944C263.36 66.6744 263.143 62.6621 262.298 60.0843C258.767 61.1372 255.017 61.915 251.142 62.3985L251.002 61.6414C254.986 61.1449 258.836 60.3311 262.444 59.2245L262.907 59.0828L263.051 59.4705C263.982 61.9579 264.365 65.9901 262.609 69.5917C274.054 65.8476 286.005 52.5448 286.005 36.6979C286.005 22.6243 266.065 11.1744 241.555 11.1744C217.046 11.1744 197.105 22.6235 197.105 36.6979C197.105 46.9264 207.695 56.1402 224.084 60.1717L223.817 60.9065C207.025 56.7755 196.174 47.2735 196.174 36.6979C196.174 22.2021 216.531 10.4081 241.555 10.4081C266.579 10.4081 286.937 22.2021 286.937 36.6979C286.937 53.3555 273.933 67.279 261.886 70.6262L260.826 70.9212Z" fill="#407BFF"/>
<path d="M291.407 38.7455L260.37 43.3056C258.153 43.6313 256.017 42.406 255.621 40.5823L252.318 25.3699C251.922 23.5461 253.411 21.7883 255.628 21.4626L286.665 16.9024C288.882 16.5767 291.019 17.802 291.415 19.6258L294.717 34.8381C295.113 36.6611 293.624 38.4198 291.407 38.7455Z" fill="#407BFF"/>
<path d="M279.207 29.2681L268.225 26.0021L270.278 35.4604L279.207 29.2681Z" fill="white"/>
<path d="M162.317 164.203H83.1753C81.5434 164.203 80.2078 163.104 80.2078 161.762V158.284C80.2078 156.941 81.5434 155.842 83.1753 155.842H162.317C163.949 155.842 165.284 156.941 165.284 158.284V161.762C165.285 163.105 163.95 164.203 162.317 164.203Z" fill="#407BFF"/>
<path d="M161.417 242.873H163.777L161.06 164.203H157.795L161.417 242.873Z" fill="#407BFF"/>
<path opacity="0.3" d="M161.417 242.873H163.777L161.06 164.203H157.795L161.417 242.873Z" fill="white"/>
<path d="M139.693 242.873H137.333L140.05 164.203H143.315L139.693 242.873Z" fill="#407BFF"/>
<path opacity="0.3" d="M139.693 242.873H137.333L140.05 164.203H143.315L139.693 242.873Z" fill="white"/>
<path d="M105.8 242.873H108.16L105.443 164.203H102.177L105.8 242.873Z" fill="#407BFF"/>
<path opacity="0.3" d="M105.8 242.873H108.16L105.443 164.203H102.177L105.8 242.873Z" fill="white"/>
<path d="M84.0771 242.873H81.7168L84.4329 164.203H87.6985L84.0771 242.873Z" fill="#407BFF"/>
<path opacity="0.3" d="M84.0771 242.873H81.7168L84.4329 164.203H87.6985L84.0771 242.873Z" fill="white"/>
<path d="M186.574 222.883L194.969 220.539L188.065 204.401L179.67 206.745L186.574 222.883Z" fill="#FFC3BD"/>
<path d="M194.35 217.875L185.14 221.198C184.804 221.319 184.678 221.592 184.834 221.854L188.328 227.695C188.69 228.3 189.787 228.602 190.551 228.313C193.728 227.113 195.158 226.414 199.208 224.952C201.7 224.053 206.726 222.45 209.834 220.804C212.874 219.195 210.503 216.778 208.975 217.256C205.354 218.39 199.333 218.341 196.036 217.759C195.439 217.653 194.841 217.698 194.35 217.875Z" fill="#263238"/>
<path opacity="0.2" d="M179.669 206.75L188.067 204.405L192.011 213.635L183.469 215.644L179.669 206.75Z" fill="black"/>
<path d="M127.065 134.021C127.065 134.021 169 140.244 172.357 151.568C178.996 173.963 193.972 208.979 193.972 208.979L178.023 212.776C178.023 212.776 155.227 172.621 152.355 159.103C128.843 159.084 100.173 160.666 96.4711 152.447C93.2008 145.186 94.3679 134.021 94.3679 134.021H127.065V134.021Z" fill="#263238"/>
<path d="M177.15 215.105L195.783 210.046L194.193 203.128L173.872 209.008L177.15 215.105Z" fill="#407BFF"/>
<path d="M150.051 225.334L159.332 225.915L153.878 207.081L145.23 208.691L150.051 225.334Z" fill="#FFC3BD"/>
<path d="M159.096 224.073L149.1 223.165C148.736 223.132 148.461 223.316 148.438 223.607L147.915 230.102C147.861 230.775 148.627 231.487 149.465 231.552C152.946 231.818 154.609 231.8 159.005 232.2C161.71 232.446 167.036 233.123 170.728 232.976C174.338 232.832 173.755 229.763 172.139 229.549C168.314 229.043 163.128 226.524 160.625 224.664C160.174 224.33 159.628 224.122 159.096 224.073Z" fill="#263238"/>
<path opacity="0.2" d="M145.231 208.696L153.881 207.086L156.633 216.603L147.883 217.868L145.231 208.696Z" fill="black"/>
<path d="M105.279 134.021C105.279 134.021 156.236 140.3 153.903 156.166C150.538 179.049 159.173 212.141 159.173 212.141L142.83 214.548C142.83 214.548 130.807 173.412 130.7 159.691C114.12 159.691 85.1477 160.667 81.4462 152.448C78.176 145.187 79.3431 134.021 79.3431 134.021H105.279Z" fill="#263238"/>
<path d="M141.662 216.79L160.835 213.358L160.131 206.341L139.174 210.444L141.662 216.79Z" fill="#407BFF"/>
<path d="M132.123 89.9207C133.485 94.3015 134.813 98.7246 136.118 103.128C137.425 107.532 138.7 111.949 140.046 116.301L141.061 119.546L141.586 121.142L141.852 121.935L141.886 122.034L141.903 122.084C141.91 122.104 141.875 122.013 141.86 121.984C141.779 121.804 141.666 121.634 141.593 121.528C141.552 121.469 141.498 121.404 141.456 121.356C141.424 121.316 141.388 121.276 141.351 121.238C141.262 121.152 141.223 121.114 141.168 121.07C140.967 120.915 140.941 120.94 140.987 120.981C141.029 121.026 141.173 121.112 141.325 121.203C141.654 121.389 142.107 121.601 142.609 121.802C143.616 122.212 144.792 122.585 145.987 122.968C150.836 124.446 156.183 125.702 161.381 127.063L160.563 131.952C157.661 131.982 154.848 131.877 151.988 131.673C149.133 131.466 146.279 131.168 143.351 130.681C141.878 130.444 140.403 130.137 138.828 129.716C138.039 129.502 137.221 129.252 136.325 128.904C135.868 128.723 135.409 128.527 134.882 128.244C134.36 127.959 133.788 127.627 133.121 127.05C132.952 126.899 132.793 126.757 132.608 126.552L132.35 126.261C132.261 126.153 132.167 126.025 132.083 125.905C131.916 125.678 131.741 125.375 131.596 125.063L131.44 124.706L131.082 123.866L130.383 122.193C129.93 121.081 129.479 119.976 129.068 118.87C127.379 114.445 125.85 110.033 124.394 105.6C122.945 101.165 121.597 96.733 120.352 92.2456L132.123 89.9207Z" fill="#FFC3BD"/>
<path d="M119.018 84.621C124.13 79.929 132.24 83.2079 135.654 93.703C137.315 98.8096 136.793 101.478 136.793 101.478L119.147 105.948C115.359 99.054 112.06 91.0065 119.018 84.621Z" fill="#407BFF"/>
<g opacity="0.2">
<path d="M119.018 84.621C124.13 79.929 132.24 83.2079 135.654 93.703C137.315 98.8096 136.793 101.478 136.793 101.478L119.147 105.948C115.359 99.054 112.06 91.0065 119.018 84.621Z" fill="black"/>
</g>
<path d="M170.586 125.065L169.001 124.665C168.044 124.423 167.035 124.348 166.039 124.444L162.636 124.774C160.355 125.25 158.439 126.457 157.449 128.044L156.294 129.895C156.873 133.318 165.295 132.217 165.295 132.217H173.216L172.954 127.577C172.888 126.412 171.941 125.407 170.586 125.065Z" fill="#FFC3BD"/>
<path d="M176.047 117.587C175.887 118.992 174.989 119.986 174.121 120.998C173.274 122.021 172.402 123.029 171.516 124.03C169.733 126.026 167.916 128.002 165.916 129.877C165.719 130.061 165.377 130.08 165.153 129.917C164.963 129.78 164.918 129.558 165.028 129.381C166.405 127.158 167.965 125.039 169.558 122.938C170.361 121.891 171.177 120.851 172.018 119.825C172.84 118.788 173.631 117.734 175.158 117.092C175.46 116.965 175.829 117.063 175.982 117.311C176.037 117.399 176.058 117.494 176.047 117.587Z" fill="#263238"/>
<path d="M120.212 80.0723L110.27 77.739L97.483 77.2424C93.4937 77.0876 89.8891 79.1482 88.6438 82.2693C86.2053 88.3804 83.9634 97.2341 82.3296 104.874C80.4975 113.441 79.5437 122.318 79.3426 134.021H127.061C128.034 112.215 131.152 101.565 132.999 93.8487C134.127 89.1368 131.241 84.395 125.97 82.329L120.212 80.0723Z" fill="#407BFF"/>
<path d="M106.88 81.608C108.093 84.1697 112.783 89.6341 118.233 91.7721C121.259 89.9743 121.907 86.0463 122.367 84.2049L106.88 81.608Z" fill="white"/>
<path d="M122.365 84.205C122.627 83.1559 122.647 82.0801 121.954 81.1873C121.179 80.1912 121.374 79.0494 122.147 77.8762C122.651 77.1107 124.035 75.4777 124.428 75.3229L118.177 69.3053L113.081 64.4524C112.645 68.9934 112.217 74.6241 107.862 78.1521C106.324 79.3973 106.01 79.7758 106.877 81.608C108.09 84.1697 112.421 87.7399 117.873 89.8778C120.898 88.0801 121.905 86.0456 122.365 84.205Z" fill="#FFC3BD"/>
<path opacity="0.2" d="M122.511 74.2922L118.987 69.5788C118.915 69.696 118.831 69.8317 118.747 69.9673C118.472 70.4731 118.196 71.1052 117.992 71.7727C117.345 73.867 119.503 76.8555 121.876 78.2823C121.972 78.1467 122.056 78.011 122.152 77.8762C122.595 77.1896 123.856 75.6915 124.288 75.4026C124.336 75.3666 124.384 75.339 124.432 75.3214L122.511 74.2922Z" fill="black"/>
<path d="M134.847 63.0255C135.663 67.3711 143.222 56.1894 139 53.7342C133.839 50.7327 133.296 54.7557 134.847 63.0255Z" fill="#263238"/>
<path d="M113.323 57.3557C112.839 64.4117 112.104 68.5144 116.04 72.5895C121.961 78.719 133.338 76.6976 136.472 69.942C139.292 63.8615 139.609 53.3442 131.367 49.6223C123.249 45.9548 113.807 50.2997 113.323 57.3557Z" fill="#FFC3BD"/>
<path d="M130.222 53.1166C130.222 53.1166 135.711 57.5442 139.619 55.7135C143.519 53.8852 144.328 49.1418 139.619 44.9855C137.355 42.9878 133.928 41.0322 127.202 41.1862C127.694 41.718 129.104 42.1441 129.104 42.1441C129.104 42.1441 120.578 40.9701 114.627 42.9847C114.627 42.9847 115.403 43.964 116.529 44.4108C110.747 44.0491 105.125 45.9112 109.12 50.4131C103.878 50.8284 102.701 56.3519 105.495 59.9917C108.289 63.6316 108.781 66.3565 112.52 68.0125C112.558 63.0569 113.904 61.886 113.904 61.886C116.595 60.9496 119.699 56.2239 119.079 53.84C124.718 55.7135 130.856 56.3411 130.222 53.1166Z" fill="#263238"/>
<path d="M110.386 50.2216C108.746 49.1089 107.333 48.0982 106.293 45.9648C105.625 48.4338 108.73 51.2438 108.73 51.2438L110.386 50.2216Z" fill="#263238"/>
<path d="M109.035 61.2109C109.084 62.9412 110.029 64.5351 111.21 65.555C112.984 67.0899 115.41 65.7864 115.831 63.8163C116.21 62.0431 115.297 59.3374 113.075 58.5389C110.886 57.7534 108.979 59.2316 109.035 61.2109Z" fill="#FFC3BD"/>
<path d="M127.369 60.9964C127.226 61.5772 127.481 62.1205 127.94 62.2102C128.397 62.2998 128.884 61.9021 129.027 61.3213C129.169 60.7404 128.914 60.1971 128.456 60.1075C127.997 60.0178 127.511 60.4155 127.369 60.9964Z" fill="#263238"/>
<path d="M135.282 62.5466C135.14 63.1275 135.395 63.6708 135.853 63.7604C136.31 63.8501 136.798 63.4524 136.94 62.8715C137.083 62.2907 136.827 61.7474 136.369 61.6577C135.911 61.5681 135.425 61.9665 135.282 62.5466Z" fill="#263238"/>
<path d="M132.645 62.5037C132.645 62.5037 133.045 65.6508 134.06 67.3796C132.759 67.919 131.12 67.1022 131.12 67.1022L132.645 62.5037Z" fill="#ED847E"/>
<path d="M129.654 70.3558C126.884 69.8577 125.713 68.1581 125.661 68.0799C125.604 67.9964 125.642 67.8907 125.744 67.8439C125.847 67.7972 125.974 67.8278 126.031 67.9121C126.044 67.9313 127.375 69.8677 130.524 70.1167C130.642 70.1252 130.725 70.211 130.714 70.3068C130.703 70.4026 130.6 70.4723 130.483 70.4631C130.192 70.4393 129.916 70.4026 129.654 70.3558Z" fill="#263238"/>
<path d="M126.326 58.6477C126.261 58.627 126.202 58.5925 126.154 58.5457C126.006 58.3971 126.031 58.1779 126.212 58.0561C127.996 56.8477 129.859 57.3488 129.937 57.3703C130.152 57.4116 130.277 57.6285 130.201 57.8109C130.126 57.9925 129.887 58.0898 129.666 58.0285C129.588 58.0078 128.148 57.6431 126.748 58.5925C126.626 58.676 126.464 58.6929 126.326 58.6477Z" fill="#263238"/>
<path d="M136.263 58.7894C136.247 58.7342 136.248 58.6745 136.267 58.6155C136.331 58.4308 136.564 58.3227 136.789 58.3756C139.012 58.8929 139.574 60.4385 139.596 60.5036C139.677 60.673 139.532 60.8806 139.307 60.9335C139.082 60.9864 138.848 60.8798 138.784 60.6959C138.761 60.6323 138.304 59.4507 136.559 59.0446C136.406 59.0093 136.297 58.9082 136.263 58.7894Z" fill="#263238"/>
<path d="M99.4805 87.8027C97.6866 92.0027 95.9001 96.3821 94.3027 100.668C93.4961 102.818 92.763 104.971 92.0971 107.097C91.4544 109.217 90.903 111.346 90.6124 113.282C90.5844 113.516 90.5388 113.767 90.5239 113.989L90.4941 114.328C90.4838 114.434 90.4717 114.598 90.4699 114.545C90.4429 114.532 90.3982 114.584 90.4485 114.745C90.5295 115.06 90.9281 115.694 91.5746 116.324C92.8795 117.609 94.8643 118.961 96.9759 120.172C101.228 122.633 106.174 124.824 110.998 126.873L109.084 131.55C106.125 131.033 103.364 130.367 100.554 129.574C97.7583 128.781 94.9975 127.851 92.2517 126.716C89.5235 125.538 86.7805 124.25 84.1408 122.185C82.8396 121.138 81.4835 119.893 80.4896 118.046C80.0006 117.132 79.6392 116.031 79.5591 114.857C79.5331 114.513 79.5396 114.387 79.5359 114.201L79.5312 113.667C79.5256 113.308 79.5508 112.979 79.5601 112.632C79.6914 109.925 80.172 107.465 80.7299 105.04C81.2851 102.62 81.9855 100.269 82.7344 97.9453C84.2647 93.2863 86.0288 88.8211 88.1488 84.2885L99.4805 87.8027Z" fill="#FFC3BD"/>
<path d="M96.8768 77.2378C105.985 77.1704 107.709 82.9987 102.753 92.2456C100.161 97.0824 95.8234 101.692 95.8234 101.692L80.7594 95.1076C82.7787 87.726 86.4532 77.3144 96.8768 77.2378Z" fill="#407BFF"/>
<path d="M122.006 126.117L118.673 124.615C118.128 124.37 117.502 124.275 116.887 124.345L112.884 124.8C110.191 125.032 108.233 126.726 106.766 128.198L105.055 129.915C104.973 133.376 115.61 132.562 115.61 132.562L124.916 132.466L124.625 129.447C124.489 128.045 123.504 126.793 122.006 126.117Z" fill="#FFC3BD"/>
<path d="M320.743 130.725H68.6133V140.431H320.743V130.725Z" fill="#407BFF"/>
<path opacity="0.3" d="M150.394 130.725H68.6133V140.431H150.394V130.725Z" fill="white"/>
<path d="M75.3659 140.431H71.507V247.468H75.3659V140.431Z" fill="#407BFF"/>
<path opacity="0.7" d="M75.3659 140.431H71.507V247.468H75.3659V140.431Z" fill="white"/>
<path d="M147.501 140.431H143.642V247.468H147.501V140.431Z" fill="#407BFF"/>
<path opacity="0.7" d="M147.501 140.431H143.642V247.468H147.501V140.431Z" fill="white"/>
<path d="M245.714 140.431H241.855V247.468H245.714V140.431Z" fill="#407BFF"/>
<path opacity="0.7" d="M245.714 140.431H241.855V247.468H245.714V140.431Z" fill="white"/>
<path d="M317.85 140.431H313.991V247.468H317.85V140.431Z" fill="#407BFF"/>
<path opacity="0.7" d="M317.85 140.431H313.991V247.468H317.85V140.431Z" fill="white"/>
<path d="M293.367 87.8126H224.442C222.107 87.8126 219.884 89.3834 219.499 91.303L212.31 127.234C211.925 129.154 213.521 130.725 215.855 130.725H284.78C287.115 130.725 289.338 129.154 289.723 127.234L296.913 91.303C297.296 89.3834 295.701 87.8126 293.367 87.8126Z" fill="#263238"/>
<path d="M249.642 128.383H184.753C184.326 128.383 183.977 128.67 183.977 129.021V130.086C183.977 130.437 184.326 130.724 184.753 130.724H249.642C250.069 130.724 250.418 130.437 250.418 130.086V129.021C250.419 128.67 250.07 128.383 249.642 128.383Z" fill="#263238"/>
<path opacity="0.2" d="M293.365 87.8126H225.992C223.659 87.8126 221.435 89.3834 221.051 91.303L213.86 127.234C213.476 129.154 215.071 130.725 217.405 130.725H284.778C287.112 130.725 289.336 129.154 289.72 127.234L296.911 91.303C297.294 89.3834 295.699 87.8126 293.365 87.8126Z" fill="white"/>
<path d="M115.006 128.383C115.006 128.383 137.205 131.1 147.91 127.506C152.922 129.489 170.775 130.469 176.984 128.383C175.069 130.214 170.56 130.725 170.56 130.725C170.56 130.725 128.238 130.725 123.737 130.725C119.235 130.725 115.796 129.107 115.006 128.383Z" fill="#407BFF"/>
<path opacity="0.7" d="M115.006 128.383C115.006 128.383 137.205 131.1 147.91 127.506C152.922 129.489 170.775 130.469 176.984 128.383C175.069 130.214 170.56 130.725 170.56 130.725C170.56 130.725 128.238 130.725 123.737 130.725C119.235 130.725 115.796 129.107 115.006 128.383Z" fill="white"/>
</svg>
